# xmcd CD database file
#
# Track frame offsets:
#	150
#	15169
#	27688
#	51963
#	74545
#	93108
#	111529
#	122661
#	141877
#	149492
#	172832
#	184999
#
# Disc length: 2653 seconds
#
# Revision: 0
# Processed by: cddbd v1.5.2PL0 Copyright (c) Steve Scherf et al.
# Submitted via: CDex 1.51
#
DISCID=ad0a5b0c
DTITLE=André Manoukian - Inkala
DYEAR=2008
DGENRE=Jazz
TTITLE0=La fenêtre d'Orient
TTITLE1=Inkala
TTITLE2=Ostinata
TTITLE3=Pavane persane
TTITLE4=Square circles
TTITLE5=Pope song
TTITLE6=Partizan
TTITLE7=Colchiques
TTITLE8=Danse gaie (Mais un peu triste)
TTITLE9=Spleen majeur
TTITLE10=Armeniamundi
TTITLE11=Blow
EXTD=YEAR: 2008
EXTT0=
EXTT1=
EXTT2=
EXTT3=
EXTT4=
EXTT5=
EXTT6=
EXTT7=
EXTT8=
EXTT9=
EXTT10=
EXTT11=
PLAYORDER=
